<?xml version="1.0" encoding="UTF-8" standalone="no"?>
<svg viewBox="0 0 467.72299 467.39001" width="467.72299" height="467.39001" version="1.1" xmlns="http://www.w3.org/2000/svg">

<path id="path08" style="clip-rule:evenodd;fill:#90dfaa;fill-rule:evenodd;stroke-width:1.55876" d="m 234.5 3.3 c 127.4 0 230.6 103.3 230.6 231.2 c 0 127.4 -103.3 230.6 -230.6 230.6 C 106.6 465 3.3 361.8 3.3 234.4 C 3.3 106.5 106.6 3.3 234.5 3.3 Z" />
     
<path id="path10" style="fill:#324a5e;stroke-width:1.55876" d="m 234.5 1.2 c 63.9 0 122.1 26.2 164.6 68.2 c 41.9 42.4 68.1 100.6 68.1 165.1 c 0 63.9 -26.2 122.6 -68.1 164.6 c -42.5 42.5 -100.6 68.1 -164.6 68.1 c -64.5 0 -122.7 -25.7 -165.1 -68.1 C 27.5 357.1 1.2 298.4 1.2 234.4 c 0 -64.5 26.2 -122.7 68.1 -165.1 C 111.8 27.4 170 1.2 234.5 1.2 Z M 396.4 72.5 C 354.5 31.1 297.4 5.4 234.5 5.4 C 171.1 5.4 113.9 31.1 72.5 72.5 C 31.1 113.9 5.4 171 5.4 234.4 c 0 62.9 25.7 120.5 67.1 161.9 c 41.4 41.4 98.5 67.1 162 67.1 c 62.9 0 120 -25.7 162 -67.1 c 41.4 -41.4 66.6 -99.1 66.6 -161.9 c 0 -63.4 -25.2 -120.6 -66.6 -162 z" />
      
<path id="path12" style="clip-rule:evenodd;fill:#84dbff;fill-rule:evenodd;stroke-width:1.55876" d="m 415.8 165.3 c 1.6 1 3.2 2.1 4.2 3.1 c 1.6 0 2.6 0 4.2 0 c 0 -2.6 0 -5.3 0 -7.9 c 3.7 0 7.9 -0.5 12.1 -1 c 3.7 3.1 7.9 5.8 11.5 8.9 c 2.6 0 5.2 0 7.8 0 c -2.1 -7.4 -4.7 -14.7 -7.3 -21.5 c -2.1 -1.6 -3.7 -3.7 -5.2 -5.3 c -0.5 -2.6 -0.5 -5.2 -1 -7.8 c 0 -1 -0.5 -2.1 -1 -2.6 c -2.1 0.5 -3.7 1.6 -5.8 2.6 c -1 4.7 -2.1 8.9 -3.1 13.6 c -3.2 -3.1 -6.3 -6.8 -9.4 -10 c 0 -3.2 0 -6.3 0 -9.4 c -3.1 -2.1 -6.3 -4.7 -8.9 -7.3 c -1 -1 -2.6 -2.1 -3.7 -3.1 c -3.1 0 -6.8 0 -10 0 c 1 2.6 2.1 5.7 3.2 8.9 c 4.2 2.6 8.4 4.7 12.6 6.8 c 0.5 1 1.1 1.6 2.1 2.6 c -1.1 0.5 -2.1 0.5 -2.6 1 c 0 2.6 0 5.2 0 7.3 c -2.1 1 -4.2 1.6 -6.3 2.6 c -1.6 -0.6 -3.1 -0.6 -5.3 -1.1 c -1 -1.6 -2.1 -3.1 -3.1 -4.7 c 3.1 0 5.8 0.5 8.4 0.5 c 1 -1 1.6 -2.1 2.6 -3.1 c -6.3 -4.2 -12.6 -8.4 -18.9 -12.6 c -0.5 -1.6 -1 -3.7 -1.6 -5.3 c -2.6 2.1 -4.7 4.7 -7.3 6.8 c -2.6 -0.5 -5.2 -1 -7.9 -1.6 c -3.7 5.2 -7.9 10 -11.5 15.2 c -1 2.1 -1.6 4.2 -2.1 5.8 c -2.6 0.5 -5.2 0.5 -7.9 1 c -3.7 0 -7.3 0 -11 0 c -2.1 -1 -4.2 -2.1 -6.3 -3.2 c -1 -4.2 -1.6 -8.9 -2.1 -13.1 c 0.5 -2.1 1.6 -4.2 2.1 -6.3 c 4.2 -1 7.9 -1.6 11.5 -2.6 c 4.2 1.1 7.9 1.6 12 2.6 c 0.5 -2.1 1.1 -4.7 1.6 -6.8 c -1.6 -0.5 -3.7 -1 -5.2 -1 c 0.5 -3.7 1.1 -7.3 2.1 -11 c 3.7 -0.5 7.9 -1 12.1 -1.6 c 3.1 -4.2 5.8 -8.4 8.9 -12.6 c 2.6 -0.5 5.8 -0.5 8.9 -1.1 c 2.6 0 5.2 0.6 7.9 1.1 c 1.1 0 2.1 0 3.1 0 c -0.5 -3.6 -1 -7.9 -1.6 -11.5 c -3.7 1 -6.8 2.6 -10 3.7 c -1 -2.6 -2.6 -5.2 -3.7 -8.4 c -1.6 0 -3.7 -0.5 -5.8 -0.5 c 0 -2.1 -0.5 -4.2 -1 -6.3 c 1.6 -1.6 3.1 -3.2 4.7 -4.7 c 2.1 -1 3.7 -1.6 5.8 -2.1 C 347.7 25.8 293.7 3.3 234.5 3.3 c -37.7 0 -72.9 8.9 -103.8 24.6 c 4.2 0 8.4 0 13.1 0 c 2.1 2.6 4.2 5.8 6.3 8.4 c 3.1 0.5 6.8 0.5 10.5 1.1 c 2.1 -2.1 4.2 -4.2 6.3 -6.3 c 1.6 0.5 3.1 1.6 4.7 2.1 c -3.2 3.1 -5.8 5.8 -8.9 8.9 c 0 0 -12.1 0 -11.5 0 c 0.5 0 1.1 8.4 1.1 8.4 c 5.2 0 10 -0.5 14.7 -0.5 c 0.5 -1 1 -2.6 1.6 -3.7 c 3.7 -0.5 6.8 -0.5 10.5 -1 c 0 -1.6 0.5 -3.7 1 -5.8 c -2.1 -0.5 -4.2 -0.5 -6.3 -1 c 1 -1.6 1.6 -3.7 2.1 -5.3 c 1.6 -0.5 3.1 -1 4.7 -1.6 c 5.2 0.5 10.5 0.5 15.7 1 c -2.6 2.6 -5.8 5.2 -8.4 7.9 c 0 2.1 0.5 4.2 1 6.3 c 3.2 0.5 6.3 0.5 9.4 1.1 c -0.5 -3.7 -0.5 -7.3 -0.5 -11 c 2.6 -1.6 5.8 -3.1 8.4 -4.7 c 5.3 -0.5 10.5 -1.1 15.7 -1.6 c 7.3 3.1 14.7 6.8 22 10 c 0 2.6 0 5.7 0 8.4 c 2.6 0.5 5.2 1.5 7.3 2.1 c -1 2.1 -2.1 4.2 -3.7 6.8 c -3.1 0 -6.8 0 -10 0 c -1 2.1 -2.1 4.7 -3.1 7.3 c -7.3 -1.6 -15.2 -3.7 -23.1 -5.2 c 6.3 -3.1 12 -6.3 18.3 -9.9 c -2.6 -1.6 -4.7 -3.7 -6.8 -5.8 c -5.2 0.5 -10.5 1.6 -15.7 2.1 c -0.5 0.5 -1.1 1.1 -1.6 1.6 v 0 v 0 c -1.6 1.6 -3.1 3.1 -4.7 4.7 c -2.6 0.5 -5.2 0.5 -7.3 0.5 c 2.6 16.3 -3.2 1.6 -21 7.3 c -17.3 10 -35.6 21.5 -1 26.7 c 0 18.9 3.1 17.3 10.5 2.1 c 4.2 -1.5 8.4 -3.1 13.1 -4.2 c 0 -5.2 0 -11 0 -16.3 c 2.1 -1.6 4.2 -3.7 6.8 -5.2 c 5.8 1 11.5 2.6 16.8 3.7 c 0 3.6 -0.5 7.3 -1 11 c 1.6 0 3.1 0 4.7 0 c 4.2 -2.1 8.4 -4.2 12.6 -6.3 c 0 4.7 0 9.4 0.5 14.2 c 3.1 2.1 5.8 3.7 8.9 5.8 c 0 2.6 0 5.2 0 8.4 c -3.1 0.5 -6.3 1.6 -8.9 2.6 c 0 1 0.5 2.1 0.5 3.1 c 3.7 1.6 6.8 3.2 10.5 4.7 c 0 1.6 0 3.7 0 5.8 c -1 0 -2.1 0 -3.1 0 v 0 c -4.7 -1.6 -8.9 -2.6 -13.6 -4.2 c 0 -1.6 0 -2.6 -0.5 -4.2 v 0 c 1.6 -1.1 2.6 -1.6 4.2 -2.6 c 0 -1.6 0 -2.6 0 -4.2 c -1.6 0 -3.1 -0.5 -4.2 -1 c -0.5 1.6 -0.5 2.6 -1 3.7 c -2.6 0.5 -4.7 1.1 -7.3 1.1 c -0.5 0 -0.5 0 -0.5 0 c 0 0 0 0 0 0.5 c -1 0 -2.1 0 -2.6 0 c -1.1 -1 -1.6 -2.6 -2.1 -4.2 c -1 0 -1.6 -0.5 -2.6 -1 c -1.6 0 -3.2 0 -5.2 0 c -0.5 1 -1.6 1.6 -2.1 2.1 c 0 1.6 0 3.1 0 4.2 c 1.6 0.5 2.6 1 4.2 1.6 c 1.6 0.5 3.2 0.5 4.7 0.5 c -0.5 0.5 -1 0.5 -1 0.5 c -1.6 1.5 -2.6 3.1 -4.2 4.7 c -0.5 -1 -1 -1.5 -1.6 -2.6 c -1.6 0 -2.6 -0.6 -4.2 -0.6 c -3.2 3.1 -6.8 6.3 -10.5 9.4 c 0.5 0.5 1 1.1 1.6 1.6 c -5.2 2.6 -10.5 5.8 -15.7 8.4 c -4.7 5.3 -10 10.5 -14.7 15.2 c -0.5 2.6 -0.5 4.7 -1 6.8 c -4.7 3.2 -10 6.8 -14.7 10 c -2.6 2.1 -4.7 4.7 -7.3 7.3 c 0 4.7 0.5 9.4 0.5 14.7 c -3.1 -1.6 -6.3 -3.1 -10 -4.7 c 0 -3.1 0 -5.8 0 -8.9 c -9.4 0 -18.9 0 -27.8 0 c -5.2 2.6 -10 5.2 -14.7 7.9 c -2.1 3.7 -4.2 7.3 -6.3 11.5 c -1 3.1 -2.1 6.3 -2.6 8.9 c 1 3.1 2.6 6.3 4.2 9.5 c 3.7 0.5 7.3 0.5 11.5 1 c 5.8 -3.7 12 -7.9 17.8 -12.1 c 0.5 2.1 1.1 4.2 2.1 6.3 c -2.1 3.1 -4.2 6.8 -5.8 10.5 c 4.7 0.5 9.4 1.6 13.6 2.1 c 0.5 7.3 1 14.1 1.6 21.5 c 6.3 1 12.6 2.1 18.9 3.1 c 19.4 -22 46.1 -9.4 62.9 8.9 c 0.5 0 1 0 1 0.5 c 30.4 14.7 8.9 16.8 37.2 27.8 c 7.3 0 14.2 0 21 0 c 2.1 3.1 4.2 6.8 6.3 10 c 3.1 1 6.3 2.1 9.4 3.1 c -0.5 2.6 -1 5.8 -2.1 8.4 c -3.1 4.2 -6.8 8.4 -10 13.1 c -1.1 9.4 -2.1 18.9 -3.2 28.8 c -3.1 2.1 -5.8 4.7 -8.9 6.8 c -4.7 0 -9.4 0 -13.6 0 c -1.6 2.6 -3.1 5.2 -4.7 7.9 c 1.1 4.7 2.1 9.9 3.1 14.7 c -4.7 6.3 -10 12.6 -14.7 19.4 c -1.6 2.6 -3.2 5.8 -4.7 8.4 c -4.7 2.6 -9.4 4.7 -14.2 6.8 c -3.2 0.5 -6.3 1.1 -9.4 1.6 c 0 1.6 -0.5 2.6 -0.5 4.2 c 2.1 0.5 4.7 1.1 6.8 1.6 c -0.5 1.6 -0.5 3.1 -1 4.2 c -2.1 2.1 -3.7 3.7 -5.8 5.8 c 1 1.6 2.6 3.1 3.7 4.7 c 2.1 0 4.7 0 6.8 0 c 0 1.6 0 3.7 -0.5 5.3 c -0.5 2.1 -1 3.7 -1.6 5.8 c 0 1.1 -0.5 2.6 -0.5 4.2 c 3.1 3.1 6.8 5.8 10.5 8.9 c -0.5 1.6 -1.1 3.1 -1.6 4.2 c -4.7 0 -9.4 0 -14.1 0 c -4.7 -4.2 -9.4 -8.4 -14.2 -12.6 c -3.7 -6.3 -7.3 -12.6 -11 -19.4 c 0.5 -5.8 1 -12.1 1.6 -18.3 c -2.6 -3.7 -5.8 -7.3 -8.4 -11 c 1 -6.3 2.1 -12.6 3.1 -18.9 c -1.6 -0.5 -3.1 -1 -4.7 -1.6 c 0 -13.6 0 -27.3 0 -40.9 c 0 0 -14.1 -10.5 -14.7 -10.5 c -1 0 -7.3 -2.1 -7.3 -2.1 c -0.5 -2.1 -1 -4.7 -1.6 -7.3 c -5.8 -7.9 -12 -15.2 -17.8 -23.1 c 0.5 -2.6 1 -5.2 1.6 -7.9 c 0.5 -4.2 0.5 -8.9 0.5 -13.1 c 4.2 -3.2 8.4 -6.3 12.6 -8.9 c -0.5 -5.2 -1 -10 -1.6 -14.7 c -6.3 -0.5 -12 -1.1 -18.3 -1.6 c -4.7 -5.2 -9.4 -11 -14.1 -16.3 c -3.7 -1 -6.8 -2.1 -10.5 -3.1 c -2.1 0 -4.2 -0.5 -6.3 -1.1 c 0 -2.1 0.5 -3.7 0.5 -5.8 c -2.6 -0.5 -5.2 -1 -8.4 -1 c 0 1 0 2.1 0 3.1 c -6.8 -1.6 -13.6 -3.7 -20.4 -5.2 c -3.1 -4.2 -5.8 -8.4 -8.4 -12.6 c 1 -2.1 2.1 -4.2 3.1 -6.3 c -4.2 -6.8 -8.9 -13.1 -13.1 -19.4 c -0.5 -4.7 -1.6 -9.4 -2.1 -14.1 c -2.1 0 -3.7 0 -5.8 0 c 1 4.7 1.6 9.4 2.1 13.6 c 3.1 4.7 5.8 9.4 8.9 14.2 c 0 2.1 -0.5 3.7 -1 5.8 c -2.6 -0.5 -5.2 -1.1 -7.3 -1.6 c -3.1 -5.2 -6.8 -10.5 -10 -16.3 c 0 -6.3 0 -12.6 0 -18.9 c -3.1 -1.6 -6.3 -3.1 -10 -4.7 c 0 -1.6 0 -3.1 0 -4.7 c -10 26.2 -15.7 55 -15.7 84.9 c 0 127.4 103.3 230.6 231.1 230.6 c 73.9 0 139.9 -34.6 181.9 -88.6 c 0 -2.6 0 -5.2 0 -7.4 c -3.1 -4.2 -5.8 -8.4 -8.9 -12.6 c 0 -6.3 0 -12.6 0 -18.9 c -2.6 -2.6 -4.7 -4.7 -6.8 -6.8 c -0.5 -2.6 -0.5 -5.2 -1 -8.4 c 3.1 -5.3 6.3 -11 8.9 -16.8 c -5.3 -10 -11 -19.4 -16.8 -29.4 c 1 -6.8 1.6 -13.6 2.1 -19.9 c -5.2 -0.5 -10 -1 -15.2 -1.6 c -1.6 -2.1 -3.7 -4.2 -5.2 -5.8 c -3.7 0 -6.8 0 -10.5 0 c -0.5 0.5 -1.6 1.6 -2.6 2.1 c -0.5 1 -1.6 2.1 -2.1 2.6 c -84.4 0 -43.5 -85.4 -14.2 -101.7 c 1.6 0 3.1 0.5 5.2 0.5 c 3.1 0 6.8 0 10.5 0 c 2.6 -1.6 5.2 -3.1 8.4 -4.2 c 8.9 -1 17.8 -1.5 26.7 -2.1 c 0 4.2 0 8.9 0 13.6 c 6.8 1.6 14.2 3.7 21 5.3 z" />
     
<path id="path14" style="fill:#324a5e;stroke-width:1.55876" d="m 417.4 163.7 l 3.1 2.6 h 1.6 v -7.3 l 14.2 -1.6 l 1 0.5 l 11 8.4 h 4.7 l -2.6 -7.9 c -1.6 -3.7 -2.6 -6.8 -4.2 -10.5 l -4.7 -5.2 l -0.5 -1.1 l -0.5 -7.3 l -0.5 -0.5 l -2.6 1.6 l -4.2 16.2 l -11.5 -12.6 l -0.5 -1.6 l -0.5 -1 l -3.7 2.1 l 0.5 7.3 l -7.3 3.2 h -1.6 l -4.7 -1.1 l -1.6 -1 l -5.2 -7.9 l 11 0.5 l 0.5 -0.5 l -16.8 -11.5 l -1.1 -1 l -0.5 -2.1 l -5.8 5.3 l -7.3 -1.6 l -11 14.1 l -2.1 6.3 l 3.1 -2.1 h 0.5 l 29.3 -2.6 v 14.7 l 19.4 4.7 z m 1.6 6.3 l -3.7 -3.1 l -22.5 -5.2 v -13.1 l -24.1 1.6 l -7.9 4.2 l -1 0.5 c -5.8 0 -10 0 -15.7 -0.5 c -11 6.3 -23.6 23.6 -30.4 41.4 c -3.1 8.4 -4.7 17.3 -3.7 25.7 c 1.1 7.9 4.2 15.2 10.5 20.4 c 7.3 6.3 19.4 9.9 36.7 9.9 l 4.7 -4.2 l 1 -0.5 h 10.5 l 1 0.5 l 5.2 5.3 l 16.2 1.6 l -2.1 21.5 l 17.3 29.9 l -9.4 17.3 l 0.5 6.8 l 7.3 6.8 v 19.4 l 8.4 11.5 l 0.5 1.6 v 7.4 l -0.5 1 c -21.5 27.8 -49.8 50.8 -81.8 66 c -30.4 15.2 -65.5 23.6 -101.7 23.6 c -64.5 0 -122.7 -25.7 -165.1 -68.1 C 27.5 357.1 1.2 298.4 1.2 234.4 c 0 -15.2 1.6 -29.9 4.2 -44 c 2.6 -14.1 6.8 -28.3 12 -41.9 l 3.7 1.1 v 3.7 l 10 4.7 v 19.4 l 8.9 15.2 l 4.7 0.5 l 0.5 -2.6 l -8.4 -13.6 l -0.5 -0.5 l -2.1 -16.2 h 9.4 l 2.6 15.7 l 13.6 19.9 l -3.7 5.8 l 7.3 11.5 l 17.8 4.2 v -3.2 l 12.6 2.1 l -1.1 5.8 c 5.2 1 9.4 2.1 15.2 3.7 l 0.5 0.5 l 14.1 15.7 l 18.9 1.6 l 2.1 17.8 l -12.6 8.9 c -0.5 8.9 -0.5 11.5 -2.1 19.9 l 17.3 21.5 l 0.5 1 l 1 6.3 l 5.8 1.6 c 1.6 0 15.7 11 15.7 11 l 1 0.5 v 40.4 l 5.2 1.6 l -3.7 19.9 l 7.9 10 l 0.5 1.6 l -1.6 18.3 l 10.5 18.3 l 13.1 11.5 l 12.1 0.5 l 0.5 -2.1 l -10 -8.9 c 0.5 -5.2 0.5 -5.8 2.6 -10.5 v -3.2 l -5.8 -0.5 l -5.2 -6.3 l 6.8 -6.8 v -1.6 l -6.3 -2.1 l 0.5 -6.8 l 11 -1.6 l 13.1 -6.8 c 6.3 -11 11 -16.2 18.9 -26.7 l -3.2 -13.6 l 0.5 -1.6 l 4.7 -8.9 l 14.2 0.5 l 8.4 -6.3 l 2.6 -28.3 l 0.5 -1 l 10 -12.6 l 1.1 -5.8 l -7.3 -2.6 l -1.1 -1 l -5.8 -8.9 l -19.9 -0.5 h -0.5 c -15.2 -5.8 -16.8 -8.9 -18.9 -13.1 c -2.1 -3.7 -4.2 -7.4 -18.3 -14.7 l -1 -0.5 l -0.5 -0.6 c -2.1 -2.1 -4.2 -3.6 -6.3 -5.7 c -7.8 -6.8 -16.8 -11.5 -25.7 -13.1 c -8.9 -1.6 -17.3 0 -25.2 7.3 c -1 1 -2.1 2.1 -3.1 3.1 l -0.5 0.5 l -22 -3.7 l -1.1 -21.5 l -15.2 -2.1 l 6.3 -12.6 l -0.5 -2.6 l -15.7 10.5 l -1.6 0.5 l -12.6 -1.6 l -4.7 -10 v -1 l 2.6 -9.9 l 6.3 -11.5 l 1 -1.1 l 14.7 -7.3 h 1.1 h 29.9 v 8.9 l 5.8 3.1 l -0.5 -12.6 c 9.4 -9.4 10.5 -9.4 22 -17.3 l 1.1 -5.8 l 0.5 -1 l 14.7 -15.2 l 0.5 -0.5 l 13.1 -7.3 l -1.1 -0.5 l 13.1 -12.6 l 3.7 1 l -3.1 -1 v -6.8 l 3.1 -2.6 h 1 h 5.2 h 1 l 2.1 1 l 1 1 l 1 1.6 v 0 l 2.6 0.5 l 5.8 -0.5 l 1 -4.2 l 7.9 1.6 v 1 l 6.8 -2.1 V 92.9 l -8.9 -5.8 l -0.5 -12.1 l -9.4 4.7 l -1 0.5 h -6.8 l 1 -11.5 l -14.1 -3.1 l -5.8 4.2 V 86.6 l -13.1 4.2 c -3.7 7.9 -6.8 12 -9.4 12 c -3.2 0 -4.2 -4.7 -4.7 -14.1 c -17.8 -2.6 -22 -7.9 -18.9 -14.2 c 2.6 -5.2 12.1 -11 21 -16.3 h 0.5 c 8.9 -2.6 14.7 -1 18.3 0 c 1.1 0.5 2.1 1 2.1 1 c 0 -0.5 -0.5 -1.6 -1 -5.8 l -0.5 -2.1 l 8.9 -0.5 c 2.1 -2.1 3.7 -3.7 4.7 -5.8 h 0.5 l 0.5 -0.5 l 1 -0.5 l 16.8 -2.1 l 10 8.4 l -16.3 8.9 l 16.3 3.7 l 2.6 -7.3 h 10.5 l 1.6 -3.7 l -5.7 -1.6 v -8.9 l -21 -8.9 l -14.7 1.6 l -7.3 3.7 l 1 12.6 l -13.1 -2.1 l -2.1 -8.4 l 6.3 -5.8 l -11 -0.5 l -3.1 1 l -0.5 2.1 l 5.2 1 l -1.6 9.4 l -10.5 0.5 l -1.6 4.2 l -18.3 0.5 v -2.1 c 0 0 1.6 -6.3 1 -6.3 v -4.2 h 11 l 5.8 -6.3 l -0.5 -0.5 l -6.3 5.8 l -12.1 -0.5 l -6.3 -8.4 h -12.1 l -1 -4.2 c 16.2 -7.9 33 -14.2 50.8 -18.3 c 17.3 -4.2 35.1 -6.3 54 -6.3 c 29.3 0 57.1 5.8 82.8 15.2 c 27.3 10.5 51.4 25.7 72.3 44.5 l 2.6 2.1 l -8.4 3.1 l -3.7 4.2 l 1 3.1 l 5.2 1 l 3.2 7.8 l 10.5 -4.2 l 2.1 16.2 c -5.2 0 -7.3 -0.5 -13.1 -1.5 l -7.9 1.5 l -8.9 12.1 l -11.5 2.1 l -1 7.3 l 5.2 1.1 l -2.6 10.5 l -13.6 -2.6 l -10 2.1 l -1.6 4.7 l 1.6 11.5 l 5.2 2.6 h 10.5 l 6.3 -0.5 l 1.6 -4.7 l 0.5 -0.5 l 12.6 -16.2 l 7.9 1.6 l 8.9 -8.4 l 2.1 7.8 l 18.9 12.6 v -1.6 l 1 -0.5 v -0.5 l -12 -6.8 l -1.1 -1 l -4.2 -11.5 h 13.1 l 1.6 0.5 l 3.1 3.1 l 9.4 8.4 l 0.5 9.4 l 6.3 6.3 l 2.6 -10.5 l 7.9 -4.7 l 2.6 4.7 v 0.5 l 1 7.3 l 4.7 5.2 v 0.5 c 1.6 3.2 3.1 6.8 4.2 10.5 c 1 3.7 2.6 7.3 3.7 11 l 0.5 2.1 h -10.5 h -1 l -11 -8.4 l -10 1 v 7.3 h -5.8 h -1.1 z m 1.6 -34.1 v -6.8 c -4.2 -3.1 -7.3 -6.3 -11 -9.9 h -6.8 l 2.1 5.8 l 11.5 6.8 l 0.5 0.5 z m -7.3 7.3 v -3.7 l -3.1 4.2 l -5.3 -0.5 l 0.5 1 l 3.7 0.5 z m -50.8 5.8 c -6.8 0.5 -11.5 0.5 -18.9 1 l -0.5 -0.5 l -7.9 -3.7 l -2.1 -14.1 v -1.1 l 3.1 -6.8 l 12.1 -3.2 h 1.1 l 10 2.1 l 1.1 -2.6 l -5.3 -1.6 l 2.1 -13.6 l 13.1 -2.1 l 8.4 -12 l 10 -1.6 h 0.5 l 7.9 1.1 h 0.5 l -1.1 -6.8 l -8.9 3.7 l -3.7 -8.9 l -6.3 -1 l -1.6 -8.4 l 5.2 -5.8 l 1.1 -0.5 l 2.6 -1 C 364.5 44.2 341.4 30 316.2 20.6 C 290.6 10.6 263.3 5.4 234.5 5.4 c -18.3 0 -36.2 2.1 -52.9 6.3 c -14.7 3.1 -28.8 7.9 -41.9 14.2 h 4.7 l 6.8 8.9 l 8.4 0.5 l 6.8 -6.8 l 7.9 3.7 v -0.5 l 5.8 -1.6 h 0.5 l 21 0.5 l -5.2 4.7 l 8.9 -4.7 h 1 l 15.2 -2.1 l 1 0.5 l 23.6 10.5 v 7.9 l 8.4 2.1 l -5.2 10 h -10 l -3.1 8.4 l -25.2 -5.8 l -0.5 -3.7 l 15.7 -8.4 l -4.2 -3.7 l -13.6 2.1 l -5.8 5.8 l -1.6 0.5 l -5.2 0.5 c 0.5 5.7 0 7.3 -2.6 7.8 c -1 0 -2.1 0 -3.7 -0.5 c -3.1 -1 -8.4 -2.6 -15.7 -0.5 c -8.4 4.7 -17.3 10.5 -19.4 14.7 c -1.6 3.1 2.1 6.3 17.8 8.4 h 1.6 v 2.1 c 0 7.9 0 11.5 0.5 11.5 c 1 0 3.1 -3.7 6.3 -10.5 l 0.5 -1 l 12.1 -3.7 V 67.7 l 8.4 -6.3 l 19.9 4.7 l -1.6 10 h 2.1 l 14.7 -7.4 l 1 16.3 l 8.9 5.8 l -0.5 10.5 l -8.4 3.1 c 0 0 9.4 4.2 11 4.7 l -0.5 8.9 l -6.3 0.5 l -0.5 -0.5 l -13.1 -4.2 c -0.5 -2.1 -0.5 -4.7 -0.5 -6.8 l 1.6 -1.1 l -12.6 2.1 l -2.6 -5.3 l -1.6 -0.5 h -3.7 l -1 1 v 2.1 l 2.6 0.5 l 4.2 1.1 l 0.5 3.6 h -0.5 l -5.2 6.3 l -2.6 -3.7 l -2.6 -0.5 l -7.9 7.3 l 1.6 1.6 l -17.8 10 l -14.2 14.7 l -0.5 7.3 l -15.7 10 l -6.3 6.3 l 1 17.3 l -14.7 -6.8 v -7.9 h -25.7 l -13.1 6.8 l -6.3 11 l -2.1 8.4 l 3.1 7.4 l 10 1 l 19.9 -13.1 l 2.1 8.9 v 1.1 l -4.2 8.4 l 12.6 2.1 l 1.6 21.5 l 16.3 2.6 l 2.1 -2.1 c 8.9 -8.4 18.9 -10.5 28.8 -8.9 c 10 1.6 19.4 7.3 27.8 14.1 c 2.1 2.1 4.2 4.2 6.3 6.3 h 0.5 c 15.7 7.9 18.3 12.6 20.4 16.2 c 1.6 3.7 3.1 6.3 16.3 11.5 h 21.5 l 6.8 10.5 l 10 3.1 l -2.1 10.5 l -0.5 0.5 l -9.4 12.6 l -3.2 29.3 l -10 7.3 l -1 0.5 h -12.6 l -3.7 5.8 l 3.1 15.2 l -15.2 19.9 l -4.7 8.4 l -1 1 l -14.2 6.8 h -0.5 l -7.9 1 v 1 l 6.8 1.6 l -1 6.3 l -0.5 1 l -4.7 4.2 l 2.1 2.6 h 7.9 l -0.5 7.9 v 0.5 l -1.6 5.2 l -0.5 2.6 l 10.5 8.9 l -2.1 7.3 h -15.7 l -1.6 -0.5 l -14.1 -12.6 v -0.5 l -11 -19.4 l -0.5 -1 l 1.6 -17.8 l -8.4 -11 l 3.1 -18.3 l -4.7 -1 v -41.4 l -12.6 -9.4 c -1.6 0 -7.9 -2.1 -7.9 -2.1 h -1 l -1.6 -8.9 l -18.3 -23.1 l 1.6 -8.9 l 1.1 -13.6 l 12.1 -8.9 l -1.6 -12 l -16.2 -1.1 l -1.6 -1 l -13.6 -15.7 l -9.4 -2.6 l -8.4 -1.6 l 0.5 -5.8 l -4.2 -0.5 v 3.7 l -23.1 -5.8 l -1.6 -1 l -8.9 -13.6 l 3.7 -6.3 l -12.6 -18.3 l -0.5 -0.5 l -2.1 -12.6 h -1 l 1 11 l 8.9 13.6 l 0.5 1.6 l -1.6 7.3 l -10.5 -1.6 l -10 -17.3 v -1 v -17.3 l -8.4 -4.2 c -4.2 11.5 -7.3 23.1 -10 35.1 c -2.6 13.7 -3.7 28.3 -3.7 43 c 0 62.9 25.7 120.5 67.1 161.9 c 41.4 41.4 98.5 67.1 162 67.1 c 35.6 0 69.7 -8.4 100.1 -23.1 c 31.5 -15.7 58.7 -37.7 79.7 -65 v -5.8 l -8.4 -11.5 l -0.5 -1.6 v -18.3 l -6.3 -6.3 l -0.5 -1 l -0.5 -7.9 v -1 l 8.4 -16.3 l -16.3 -28.3 v -1.6 l 1.6 -17.8 l -13.1 -1.6 l -1.1 -0.5 l -5.2 -4.7 h -8.4 l -4.7 4.2 l -1 0.5 c -19.4 0 -32 -4.2 -40.4 -11 c -7.3 -6.3 -11 -14.2 -12 -23.1 c -0.5 -8.9 1 -18.3 4.2 -27.8 c 6.8 -18.9 21 -36.7 33 -43.5 l 1 -0.5 l 5.2 0.5 h 10 z M 173.2 34.2 l -8.9 8.9 l -1.6 0.5 l -9.4 0.5 c 0.5 1.6 0.5 3.1 0.5 4.2 l 12.1 -0.5 l 1.6 -3.7 l 9.4 -0.5 l 0.5 -2.6 l -6.3 -1 z m 22.5 1.6 l -5.8 5.2 l 0.5 3.7 l 5.8 1 z m 39.3 71.8 l -0.5 -0.5 l -3.1 2.1 l 0.5 1.5 l 12.1 3.7 h 0.5 v -2.6 z m -5.2 -2.1 l 1.6 -1 v -1.6 h -1 z m -20.4 4.7 l -1 -0.5 l 1 0.5 v 0.5 l 0.5 -0.5 z" />

</svg>
