<svg xmlns="http://www.w3.org/2000/svg" viewBox="-2782.27 -2850.42 2568 2700">
  <path d="M -1639 -2835 c 82 22 165 71 221 130 l 51 53 l 42 -32 c 64 -49 157 -86 245 -99 c 320 -47 613 227 590 552 l -5 70 l 41 24 c 85 50 168 149 205 245 c 104 262 -31 559 -299 658 l -55 21 l -6 50 c -19 148 -148 269 -296 280 c -90 6 -143 -4 -203 -41 l -52 -32 l -67 65 c -76 75 -150 115 -254 137 c -217 46 -459 -72 -553 -270 c -15 -31 -22 -37 -39 -32 c -140 40 -250 16 -349 -75 c -85 -79 -128 -229 -93 -327 l 14 -43 l -48 -31 c -90 -58 -168 -157 -205 -262 c -86 -244 31 -520 268 -632 c 73 -34 194 -61 233 -51 c 19 5 24 -2 39 -49 c 72 -230 338 -373 575 -309 z m -189 35 c -171 27 -331 176 -356 331 l -7 38 l -71 0 c -141 1 -238 41 -337 139 c -151 151 -182 358 -84 551 c 34 66 134 168 193 194 c 23 10 42 22 42 26 c 0 4 -7 25 -16 46 c -10 23 -17 67 -17 106 c 0 154 115 275 273 285 c 60 5 93 -2 160 -31 c 12 -5 23 9 43 54 c 32 70 121 170 184 207 c 149 87 350 84 495 -8 c 46 -30 125 -107 145 -143 c 10 -19 12 -19 43 8 c 119 100 277 100 388 1 c 61 -55 93 -118 101 -199 l 6 -60 l 38 -8 c 152 -31 300 -181 336 -339 c 24 -104 5 -241 -46 -329 c -39 -67 -116 -143 -175 -175 c -29 -15 -54 -29 -55 -30 c -1 0 2 -30 8 -65 c 21 -131 -25 -279 -119 -382 c -101 -109 -211 -158 -358 -158 c -129 0 -229 38 -320 123 l -42 38 l -21 -34 c -52 -85 -182 -169 -288 -187 c -68 -11 -71 -11 -143 1 Z M -533 -797 c 58 26 105 101 105 168 c 0 50 -37 116 -82 146 c -88 58 -216 23 -259 -71 c -57 -127 26 -258 163 -257 c 24 1 56 7 73 14 z m -129 40 c -69 29 -99 102 -71 174 c 33 82 140 110 206 55 c 41 -35 62 -85 53 -127 c -19 -90 -105 -137 -188 -102 Z M -289 -365 c 85 71 35 214 -74 214 c -69 0 -137 -82 -121 -146 c 4 -15 22 -42 41 -61 c 44 -44 107 -47 154 -7 z m -123 35 c -46 36 -28 119 29 133 c 29 7 79 -15 89 -39 c 12 -33 5 -66 -19 -90 c -30 -30 -64 -32 -99 -4 Z" stroke="#FF0000" stroke-width="0.1" fill="#000000"/>
</svg>