<?xml version="1.0" encoding="utf-8"?>
<svg id="master-artboard" viewBox="0 0 1400 980" version="1.1" xmlns="http://www.w3.org/2000/svg" x="0px" y="0px" 
			style={{enableBackground:'new 0 0 1400 980'}} width="700px" height="490px">
	<g transform="matrix(1, 0, 0, 1, -22.144421570972824, 112.107490782278)">
		<path class="st3" d="M776.4,94.4c0.9,0.8,1.1,1.8,1.1,3c0,12.4,0,24.8,0,37.1c0,0.4,0,0.9,0,1.3c-0.2,1.1-0.9,1.6-1.9,1.6&#10;&#9;s-1.6-0.5-1.9-1.4c-0.1-0.5-0.1-1-0.1-1.4c0-12.4,0-24.9,0-37.3c0-1.2,0.3-2.2,1.3-2.9C775.3,94.4,775.8,94.4,776.4,94.4z" 
					style={{fill: 'rgb(237, 192, 98)'}} transform="matrix(1.1522083282470703, 0, 0, 1.1522083282470703, -110.85172271728513, -90.00409698486328)"/>
		<path class="st3" d="M755.8,176.5c0.1-11,8.9-19.7,20-19.6c10.8,0.1,19.6,8.9,19.5,19.7c0,10.9-9,19.8-19.9,19.7&#10;&#9;C764.5,196.3,755.7,187.3,755.8,176.5z" 
					style={{fill: 'rgb(237, 192, 98)'}} transform="matrix(1.1522083282470703, 0, 0, 1.1522083282470703, -110.85172271728513, -90.00409698486328)"/>
		<path class="st3" d="M714.9,178.5c-6.3,0-12.5,0-18.8,0c-1.8,0-2.7-0.7-2.7-2s0.9-2,2.8-2c12.5,0,25,0,37.5,0c0.2,0,0.4,0,0.6,0&#10;&#9;c1.3,0.1,2.3,1,2.2,2.1c-0.1,1.3-0.9,1.9-2.2,1.9c-3.7,0-7.4,0-11.1,0C720.4,178.5,717.7,178.5,714.9,178.5z" 
					style={{fill: 'rgb(237, 192, 98)'}} transform="matrix(1.1522083282470703, 0, 0, 1.1522083282470703, -110.85172271728513, -90.00409698486328)"/>
		<path class="st3" d="M836,178.5c-6.3,0-12.5,0-18.8,0c-0.9,0-1.7,0-2.3-0.8c-0.7-1.1-0.2-2.6,1.1-3c0.3-0.1,0.6-0.1,0.9-0.1&#10;&#9;c12.8,0,25.6,0,38.4,0c1.3,0,2.2,0.6,2.2,2s-0.9,1.9-2.2,1.9C848.9,178.5,842.5,178.5,836,178.5z" 
					style={{fill: 'rgb(237, 192, 98)'}} transform="matrix(1.1522083282470703, 0, 0, 1.1522083282470703, -110.85172271728513, -90.00409698486328)"/>
		<path class="st3" d="M777.5,237.3c0,6.3,0,12.6,0,19c0,1.7-0.8,2.6-2.3,2.3c-1.3-0.2-1.7-1.1-1.7-2.3c0-3.5,0-7,0-10.4&#10;&#9;c0-9.2,0-18.3,0-27.5c0-1.3,0.2-2.4,1.8-2.6c1.4-0.2,2.2,0.6,2.2,2.3c0,4.1,0,8.1,0,12.2C777.5,232.6,777.5,234.9,777.5,237.3z" 
					style={{fill: 'rgb(237, 192, 98)'}} transform="matrix(1.1522083282470703, 0, 0, 1.1522083282470703, -110.85172271728513, -90.00409698486328)"/>
		<path class="st3" d="M724.1,230c-1.6,0-2.5-1.6-1.7-2.9c0.3-0.5,0.7-0.8,1-1.2c6.1-6.1,12.2-12.2,18.3-18.3c0.3-0.3,0.7-0.7,1.1-0.9&#10;&#9;c0.9-0.5,1.8-0.4,2.5,0.3s0.7,1.5,0.2,2.4c-0.2,0.3-0.4,0.5-0.6,0.7c-6.3,6.3-12.7,12.7-19,19C725.3,229.6,724.8,230,724.1,230z" 
					style={{fill: 'rgb(237, 192, 98)'}} transform="matrix(1.1522083282470703, 0, 0, 1.1522083282470703, -110.85172271728513, -90.00409698486328)"/>
		<path class="st3" d="M805.3,144.8c-0.1-0.7,0.4-1.3,0.9-1.8c6.3-6.3,12.7-12.7,19-19c1.2-1.2,2.4-1.3,3.2-0.4s0.7,2.1-0.4,3.3&#10;&#9;c-6.3,6.3-12.6,12.6-18.9,18.9c-0.7,0.7-1.5,1.4-2.7,0.8C805.7,146.3,805.3,145.7,805.3,144.8z" 
					style={{fill: 'rgb(237, 192, 98)'}} transform="matrix(1.1522083282470703, 0, 0, 1.1522083282470703, -110.85172271728513, -90.00409698486328)"/>
		<path class="st3" d="M722,125.1c0.1-1.6,1.6-2.5,2.9-1.7c0.4,0.2,0.8,0.6,1.1,0.9c6.2,6.2,12.4,12.4,18.5,18.5&#10;&#9;c0.4,0.4,0.8,0.8,1,1.2c0.4,0.8,0.2,1.6-0.4,2.2c-0.6,0.6-1.4,0.8-2.2,0.3c-0.2-0.1-0.5-0.3-0.6-0.5c-6.5-6.5-13-13-19.6-19.6&#10;&#9;C722.3,126.1,722,125.6,722,125.1z" 
					style={{fill: 'rgb(237, 192, 98)'}} transform="matrix(1.1522083282470703, 0, 0, 1.1522083282470703, -110.85172271728513, -90.00409698486328)"/>
		<path class="st3" d="M828.9,227.9c0,1.7-1.5,2.6-2.9,1.8c-0.2-0.1-0.4-0.3-0.6-0.5c-6.5-6.5-12.9-12.9-19.4-19.4&#10;&#9;c-0.8-0.8-1-1.8-0.3-2.7c0.6-0.9,1.5-0.9,2.4-0.5c0.3,0.1,0.6,0.4,0.9,0.7c6.4,6.4,12.7,12.7,19.1,19.1&#10;&#9;C828.6,226.8,829,227.3,828.9,227.9z" 
					style={{fill: 'rgb(237, 192, 98)'}} transform="matrix(1.1522083282470703, 0, 0, 1.1522083282470703, -110.85172271728513, -90.00409698486328)"/>
	</g>
	<path class="st5" d="M560.2,261.8c-25.7,0-51.4,0-77,0c-2.2,0-2.2,0-1.9-2.2c1.4-13,10.1-22.5,23-24.3c10.6-1.5,19.2,2.4,25.7,10.9&#10;&#9;c0.2,0.2,0.3,0.5,0.5,0.7s0.5,0.7,0.6,0.6c0.5-0.1,0.3-0.6,0.3-1c0.4-12,4.3-22.7,11.9-32c11.7-14.2,26.8-21.1,45.2-20.1&#10;&#9;c24.9,1.4,44.6,18.5,49.9,42.9c1.1,4.9,1.2,9.9,1.2,14.9c0,2.7-0.1,5.4,0,8c0,1.2-0.2,1.6-1.5,1.5c-3.8-0.1-7.5,0-11.3,0&#10;&#9;C604.5,261.8,582.3,261.8,560.2,261.8z" 
				style={{fill: 'rgb(73, 190, 254)'}} transform="matrix(0.7399874329566956, 0, 0, 0.7399874329566956, 275.7783460681874, 93.34845352603715)"/>
	<path class="st5" d="M869,356.6c-21.4,0-42.8,0-64.2,0c-1.6,0-1.9-0.4-1.8-2c0.6-8.1,6.6-15.5,14.7-17.9c8.2-2.4,17.2,0.5,22.3,7.2&#10;&#9;c0.4,0.5,0.8,1,1.2,1.5c0.5-0.6,0.3-1.3,0.4-1.9c1.5-13.3,13.2-23.9,26.3-24.2c14.5-0.4,26.5,10.3,28.2,23.8&#10;&#9;c0.1,0.8,0.3,1.6,0.4,2.4c0.5-0.6,1-1.2,1.5-1.8c5.5-6.8,14.4-9.4,22.7-6.6c7.9,2.6,13.6,10.1,14,18.1c0.1,1.3-0.3,1.6-1.5,1.6&#10;&#9;C911.8,356.6,890.4,356.6,869,356.6z" 
				style={{fill: 'rgb(73, 190, 254)'}} transform="matrix(1.2912807464599612, 0, 0, 1.2912807464599612, -405.0289049083751, -173.70643043087205)"/>
</svg>